<?xml version="1.0" encoding="UTF-8"?>
<svg id="Layer_1" data-name="Layer 1" xmlns="http://www.w3.org/2000/svg" xmlns:xlink="http://www.w3.org/1999/xlink" viewBox="0 0 422 447">
  <defs>
    <style>
      .cls-1 {
        opacity: .88;
      }

      .cls-2 {
        filter: url(#drop-shadow-1);
      }

      .cls-2, .cls-3, .cls-4 {
        fill: #f694c1;
      }

      .cls-3 {
        filter: url(#drop-shadow-3);
      }

      .cls-4 {
        filter: url(#drop-shadow-2);
      }
    </style>
    <filter id="drop-shadow-1" x="262" y="60" width="160" height="166" filterUnits="userSpaceOnUse">
      <feOffset dx="-2" dy="8"/>
      <feGaussianBlur result="blur" stdDeviation="5"/>
      <feFlood flood-color="#000" flood-opacity=".46"/>
      <feComposite in2="blur" operator="in"/>
      <feComposite in="SourceGraphic"/>
    </filter>
    <filter id="drop-shadow-2" x="0" y="222" width="156" height="164" filterUnits="userSpaceOnUse">
      <feOffset dx="-2" dy="8"/>
      <feGaussianBlur result="blur-2" stdDeviation="5"/>
      <feFlood flood-color="#000" flood-opacity=".46"/>
      <feComposite in2="blur-2" operator="in"/>
      <feComposite in="SourceGraphic"/>
    </filter>
    <filter id="drop-shadow-3" x="0" y="0" width="422" height="447" filterUnits="userSpaceOnUse">
      <feOffset dx="-2" dy="8"/>
      <feGaussianBlur result="blur-3" stdDeviation="5"/>
      <feFlood flood-color="#000" flood-opacity=".46"/>
      <feComposite in2="blur-3" operator="in"/>
      <feComposite in="SourceGraphic"/>
    </filter>
  </defs>
  <g class="cls-1">
    <path class="cls-2" d="M402.75,127.09l-27.56-44.1c-8.78-14.05-27.29-18.32-41.34-9.54l-52.88,33.04,59.21,95.05s.06-.02.08-.04l52.93-33.08c14.05-8.78,18.32-27.29,9.54-41.34Z"/>
    <path class="cls-4" d="M112.56,314c-8.02-5.94-15.06-13.77-21.11-23.48-6.05-9.71-9.97-19.48-11.77-29.3s-1.64-19.23.48-28.25c.1-.41.21-.8.32-1.21l-47.69,29.8c-14.05,8.78-18.32,27.29-9.54,41.34l27.56,44.1c8.78,14.05,27.29,18.32,41.34,9.54l48.15-30.09c-.72-.14-1.45-.27-2.17-.44-9.02-2.07-17.54-6.08-25.56-12.03Z"/>
    <path class="cls-3" d="M402.75,303.41c8.78-14.05,4.51-32.56-9.54-41.34l-59.28-37.05c-.14-.03-.27-.08-.4-.16-.04-.02-.08-.04-.12-.05-.1-.04-.19-.08-.29-.12l-10.29,6.41-32.66-52.44-49.62,30.91,32.66,52.44-25.55,15.92-75.58-121.32,25.55-15.91,28.18,45.24,49.62-30.91-28.18-45.24,21.66-13.5.09-.17v-58.12c0-16.57-13.43-30-30-30h-52c-16.57,0-30,13.43-30,30v76.47l-64.85-40.52c-14.05-8.78-32.56-4.51-41.34,9.54l-27.56,44.1c-8.78,14.05-4.51,32.56,9.54,41.34l60.48,37.79h.06c5.59-7.04,12.57-13.18,20.97-18.42,3.28-2.04,6.88-3.85,10.82-5.43,3.94-1.58,8.06-2.76,12.35-3.53,4.29-.77,8.73-1,13.32-.69,4.59.32,9.17,1.35,13.75,3.09l-9.19,29.04c-4.5-1.63-9.12-2.17-13.84-1.6-4.73.57-9.49,2.34-14.29,5.34-4.81,2.99-8.65,6.74-11.53,11.23-2.88,4.49-4.74,9.42-5.57,14.77-.83,5.36-.6,10.96.7,16.81,1.3,5.85,3.69,11.58,7.18,17.18,3.56,5.71,7.66,10.41,12.31,14.1,4.65,3.69,9.53,6.35,14.65,8,5.12,1.65,10.27,2.2,15.47,1.66,5.19-.54,10.09-2.24,14.67-5.09,5.24-3.26,9.17-7.3,11.79-12.1,2.62-4.8,3.95-10.07,4.01-15.82l31.64,3.36c-.43,10.26-3.34,19.45-8.74,27.57-5.4,8.12-12.08,14.66-20.05,19.63-9.06,5.65-18.34,9.36-27.83,11.15-2.99.56-5.95.91-8.9,1.1v64.96c0,16.57,13.43,30,30,30h52c16.57,0,30-13.43,30-30v-76.47l64.85,40.52c14.05,8.78,32.56,4.51,41.34-9.54l27.56-44.1Z"/>
  </g>
</svg>